<svg version="1.1" id="Layer_1" xmlns="http://www.w3.org/2000/svg" xmlns:xlink="http://www.w3.org/1999/xlink" x="0px" y="0px"
	 width="100%" viewBox="0 0 176 176" enable-background="new 0 0 176 176" xml:space="preserve">
<path fill="#000000" opacity="1.000000" stroke="none" 
	d="
M64.350548,34.120346 
	C80.630310,30.404608 96.474449,26.648302 112.403450,23.295179 
	C126.866096,20.250729 141.406143,17.563931 155.942184,14.882802 
	C162.466248,13.679461 164.882080,16.430759 163.651474,22.904408 
	C161.850601,32.378178 159.699661,41.757393 156.640015,50.910603 
	C156.114365,52.483170 155.517441,54.046803 154.782593,55.529915 
	C154.176453,56.753281 153.249191,57.800198 151.639343,57.429180 
	C150.013428,57.054459 149.798920,55.721592 149.689423,54.334496 
	C149.234940,48.578346 151.115219,43.167789 152.169022,37.638474 
	C152.818954,34.228142 153.618790,30.846376 154.521545,26.663012 
	C145.475464,28.749243 136.983932,30.708151 128.492142,32.665863 
	C104.031815,38.305004 79.356277,42.869305 54.675930,47.405254 
	C51.438068,48.000332 49.298729,49.133240 48.958096,52.983864 
	C48.359074,59.755413 47.298676,66.490196 46.290764,73.219299 
	C45.944107,75.533676 45.296436,78.217247 42.262512,78.027878 
	C38.934605,77.820145 38.693768,74.946701 38.721268,72.404861 
	C38.820293,63.251736 39.588272,54.135334 40.830566,45.074425 
	C41.304482,41.617836 43.849590,39.738556 47.071785,38.603252 
	C52.578594,36.662987 58.262009,35.458019 64.350548,34.120346 
z"/>
<path fill="#000000" opacity="1.000000" stroke="none" 
	d="
M117.311241,133.044525 
	C118.876228,132.790665 120.029724,132.565094 121.190231,132.520065 
	C126.408562,132.317642 129.237091,129.765945 130.231522,124.516144 
	C130.905533,120.957962 132.489502,117.563278 133.757462,114.129044 
	C134.952530,110.892212 137.399490,110.640526 140.291870,111.566071 
	C143.161774,112.484428 143.568466,114.444962 142.879120,117.084892 
	C141.956940,120.616455 140.774002,124.152908 140.455048,127.753868 
	C139.783615,135.334442 135.549026,139.147003 128.572525,141.251938 
	C117.103996,144.712189 105.435120,147.304306 93.811035,150.115005 
	C76.684097,154.256271 59.583172,158.505127 42.469906,162.703003 
	C41.179279,163.019577 39.845257,163.648773 38.588188,163.530273 
	C32.179180,162.926147 27.378942,161.060974 28.745773,153.828430 
	C29.885567,147.797256 31.146009,141.788788 32.368137,135.773331 
	C32.833008,133.485168 33.693821,131.429703 36.565250,131.960480 
	C39.204567,132.448364 40.494289,134.159119 40.358246,136.967331 
	C40.213760,139.949799 40.334450,142.901093 39.584972,145.882034 
	C38.682819,149.470215 39.824429,151.153046 44.077606,150.141907 
	C66.710960,144.761063 89.391685,139.579590 112.055206,134.325562 
	C113.674484,133.950165 115.287209,133.546463 117.311241,133.044525 
z"/>
<path fill="#000000" opacity="1.000000" stroke="none" 
	d="
M150.311005,85.076538 
	C149.038300,90.142021 148.063065,94.873955 146.562714,99.433083 
	C144.273178,106.390297 138.650421,107.323914 133.743744,101.880508 
	C131.667648,99.577339 131.088257,96.149803 127.879440,94.276306 
	C127.179062,97.188759 126.670563,99.933472 125.837776,102.575981 
	C125.111977,104.879028 123.920723,106.922630 120.882759,106.449150 
	C118.112999,106.017487 117.481682,103.944122 117.461952,101.678871 
	C117.390747,93.496727 118.721176,85.484962 120.856262,77.614998 
	C121.619530,74.801559 123.624809,73.068726 126.636581,72.888451 
	C129.588028,72.711792 131.808868,73.992287 133.094009,76.684921 
	C134.363815,79.345413 135.550598,82.045540 137.182816,85.625343 
	C139.477539,79.724747 140.784576,74.434143 143.323257,69.644920 
	C144.103836,68.172340 144.666122,66.593842 145.961212,65.463860 
	C147.409180,64.200470 148.991104,63.371578 150.975616,64.124435 
	C153.031281,64.904282 153.550491,66.677841 153.538712,68.571678 
	C153.504181,74.126129 151.542709,79.321930 150.311005,85.076538 
z"/>
<path fill="#000000" opacity="1.000000" stroke="none" 
	d="
M33.654327,117.778458 
	C34.262520,112.285561 35.897221,107.357132 35.766941,101.853203 
	C33.187080,102.982605 30.865736,104.296616 28.372663,105.013031 
	C25.417196,105.862312 22.299368,106.063538 20.558161,102.647652 
	C18.865919,99.327812 20.353987,96.756699 23.032804,94.914017 
	C32.544121,88.371422 42.978512,83.697906 53.919773,80.120743 
	C56.097542,79.408745 58.400070,79.328659 59.734470,81.515831 
	C61.013832,83.612793 60.753605,86.014793 59.601974,88.164719 
	C59.149689,89.009071 58.389820,89.969116 57.548832,90.282097 
	C47.441982,94.043434 47.858330,103.314476 46.289860,111.547691 
	C45.638596,114.966278 44.948769,118.380013 44.410641,121.816956 
	C43.892887,125.123817 42.691891,128.026123 38.776127,127.013947 
	C35.395412,126.140060 31.957588,124.511353 33.549236,119.693024 
	C33.700092,119.236328 33.617599,118.702560 33.654327,117.778458 
z"/>
<path fill="#000000" opacity="1.000000" stroke="none" 
	d="
M61.414463,113.265823 
	C67.110489,110.778091 63.332916,105.694145 65.652962,102.395561 
	C62.957779,101.560280 61.287708,103.219383 59.321205,103.244766 
	C57.345211,103.270279 55.690624,102.739700 54.705605,100.925621 
	C53.706947,99.086418 54.181454,97.405746 55.431442,95.853317 
	C57.279488,93.558136 59.890083,92.473625 62.485954,91.346817 
	C67.987221,88.958847 73.792931,87.539024 79.552246,85.980728 
	C81.312790,85.504387 82.921501,85.940262 83.779243,87.701332 
	C84.517212,89.216461 84.307884,91.123711 82.820900,91.646523 
	C74.070999,94.722908 75.853065,103.020088 73.449783,109.285126 
	C75.421379,110.561028 77.246323,109.524094 78.997330,109.710304 
	C80.800400,109.902061 82.248726,110.452957 82.876900,112.266090 
	C83.574814,114.280548 82.912277,116.085274 81.143089,116.983292 
	C74.631836,120.288284 67.943413,123.242088 60.621742,124.192909 
	C58.139725,124.515244 55.982777,123.365952 55.185570,120.771133 
	C54.366398,118.104782 55.856342,116.316986 57.954121,114.979561 
	C58.926689,114.359505 60.029171,113.943237 61.414463,113.265823 
z"/>
<path fill="#000000" opacity="1.000000" stroke="none" 
	d="
M99.788239,78.196243 
	C104.884109,76.721497 107.439438,78.694572 108.358719,83.353149 
	C109.802864,90.671509 111.903610,97.875504 112.291740,105.374374 
	C112.401695,107.498726 112.693642,110.039314 110.001839,110.852203 
	C107.198372,111.698807 106.442039,109.162033 105.255783,107.412727 
	C104.363457,106.096870 103.733940,103.958870 101.656975,104.613556 
	C99.558517,105.275009 97.050163,105.524529 96.117279,108.294487 
	C95.274391,110.797256 94.536827,113.403236 92.775909,115.500587 
	C91.454163,117.074875 89.734253,117.633141 87.843590,116.930305 
	C85.933022,116.220085 84.597137,114.433739 85.186150,112.612633 
	C88.999176,100.823662 91.337952,88.393867 99.788239,78.196243 
z"/>
</svg>